<svg xmlns="http://www.w3.org/2000/svg" xmlns:xlink="http://www.w3.org/1999/xlink" width="77.998" height="73" viewBox="0 0 77.998 73">
  <defs>
    <radialGradient id="radial-gradient" cx="0.5" cy="0.5" r="0.5" gradientUnits="objectBoundingBox">
      <stop offset="0" stop-color="#8bffae"/>
      <stop offset="1" stop-color="#13b142"/>
    </radialGradient>
    <filter id="Rectangle_7868" x="0" y="0" width="77.998" height="73" filterUnits="userSpaceOnUse">
      <feOffset dy="3" input="SourceAlpha"/>
      <feGaussianBlur stdDeviation="3" result="blur"/>
      <feFlood flood-opacity="0.749"/>
      <feComposite operator="in" in2="blur"/>
      <feComposite in="SourceGraphic"/>
    </filter>
  </defs>
  <g id="Total_Enquiry" data-name="Total Enquiry" transform="translate(-299.502 -414)">
    <g transform="matrix(1, 0, 0, 1, 299.5, 414)" filter="url(#Rectangle_7868)">
      <rect id="Rectangle_7868-2" data-name="Rectangle 7868" width="59.998" height="55" rx="10" transform="translate(9 6)" fill="url(#radial-gradient)"/>
    </g>
    <path id="ic_local_shipping_24px" d="M23.368,8.709H19.836V4H3.355A2.361,2.361,0,0,0,1,6.355V19.3H3.355a3.532,3.532,0,1,0,7.064,0h7.064a3.532,3.532,0,1,0,7.064,0H26.9V13.418ZM6.886,21.07A1.766,1.766,0,1,1,8.652,19.3,1.764,1.764,0,0,1,6.886,21.07Zm15.893-10.6,2.307,2.943H19.836V10.475Zm-1.766,10.6A1.766,1.766,0,1,1,22.779,19.3,1.764,1.764,0,0,1,21.014,21.07Z" transform="translate(325.416 435.25)" fill="#fff"/>
  </g>
</svg>
