<svg xmlns="http://www.w3.org/2000/svg" xmlns:xlink="http://www.w3.org/1999/xlink" width="77.998" height="73" viewBox="0 0 77.998 73">
  <defs>
    <radialGradient id="radial-gradient" cx="0.5" cy="0.5" r="0.5" gradientUnits="objectBoundingBox">
      <stop offset="0" stop-color="#8b93ff"/>
      <stop offset="1" stop-color="#1318b1"/>
    </radialGradient>
    <filter id="Rectangle_7868" x="0" y="0" width="77.998" height="73" filterUnits="userSpaceOnUse">
      <feOffset dy="3" input="SourceAlpha"/>
      <feGaussianBlur stdDeviation="3" result="blur"/>
      <feFlood flood-opacity="0.749"/>
      <feComposite operator="in" in2="blur"/>
      <feComposite in="SourceGraphic"/>
    </filter>
  </defs>
  <g id="Career_Applications" data-name="Career Applications" transform="translate(-299.502 -414)">
    <g transform="matrix(1, 0, 0, 1, 299.5, 414)" filter="url(#Rectangle_7868)">
      <rect id="Rectangle_7868-2" data-name="Rectangle 7868" width="59.998" height="55" rx="10" transform="translate(9 6)" fill="url(#radial-gradient)"/>
    </g>
    <path id="ic_description_24px" d="M15.7,2H6.34A2.337,2.337,0,0,0,4.012,4.34L4,23.06A2.337,2.337,0,0,0,6.328,25.4H20.38a2.347,2.347,0,0,0,2.34-2.34V9.02Zm2.34,18.72H8.68V18.38h9.36Zm0-4.68H8.68V13.7h9.36Zm-3.51-5.85V3.755l6.435,6.435Z" transform="translate(325.141 433.799)" fill="#fff"/>
  </g>
</svg>
